<svg xmlns="http://www.w3.org/2000/svg" version="1.0" preserveAspectRatio="xMidYMid meet" viewBox="65.16 54 384.96 411.04">
<g transform="translate(0.000000,512.000000) scale(0.100000,-0.100000)" fill="#7f7f7f" stroke="none">
<path d="M2595 4555 c-23 -22 -25 -32 -25 -109 0 -47 -4 -88 -10 -91 -15 -9 -12 -42 5 -48 10 -5 15 -27 17 -83 2 -51 7 -79 16 -82 9 -3 12 17 12 78 l0 81 28 -3 c21 -2 28 -9 30 -30 4 -30 -1 -28 137 -48 93 -14 224 -47 299 -75 95 -36 174 -73 180 -84 8 -13 -18 -65 -45 -92 -25 -25 -19 -33 42 -64 27 -14 49 -27 49 -30 0 -2 -16 -34 -36 -70 -20 -36 -33 -69 -29 -73 9 -9 32 22 62 86 29 61 26 66 -44 107 -42 25 -44 28 -25 41 10 7 25 28 32 46 8 18 14 34 16 36 1 2 21 -6 45 -18 l43 -22 18 22 c24 30 23 34 -17 64 -28 22 -35 34 -35 61 0 40 8 65 22 65 5 0 52 -27 105 -60 52 -33 101 -60 107 -60 7 0 21 9 31 20 10 11 23 20 30 20 6 0 55 -39 109 -86 60 -52 103 -83 112 -80 25 10 36 55 19 79 -21 30 -236 217 -249 217 -6 0 -20 -14 -31 -30 -11 -16 -24 -30 -29 -30 -5 0 -32 15 -60 34 -81 53 -195 107 -236 111 -20 2 -54 11 -76 20 -85 35 -401 105 -478 105 -3 0 -6 9 -6 21 0 29 -53 79 -85 79 -14 0 -37 -11 -50 -25z m377 -174 c106 -25 236 -67 268 -87 28 -17 26 -17 -97 24 -48 16 -124 38 -168 47 -44 10 -84 21 -89 26 -14 12 -8 12 86 -10z m145 -125 c64 -22 190 -74 202 -83 3 -2 -2 -10 -10 -18 -13 -13 -27 -11 -119 24 -121 46 -223 74 -333 91 -69 11 -77 15 -77 35 0 12 2 24 5 27 8 8 252 -48 332 -76z"/>
<path d="M2425 4463 c-175 -16 -433 -87 -576 -159 -66 -33 -75 -46 -58 -91 23 -61 33 -61 165 -9 167 66 184 74 184 90 0 9 16 20 39 26 58 15 230 40 282 40 67 0 96 39 69 91 -11 19 -17 20 -105 12z"/>
<path d="M1660 4360 c-28 -28 -25 -64 6 -89 15 -12 32 -21 39 -21 24 0 65 41 65 66 0 31 -33 64 -65 64 -14 0 -34 -9 -45 -20z"/>
<path d="M2505 4280 c-4 -6 -3 -16 3 -22 6 -6 12 -6 17 2 4 6 3 16 -3 22 -6 6 -12 6 -17 -2z"/>
<path d="M2347 4269 c-176 -26 -487 -134 -487 -170 0 -10 4 -20 8 -23 5 -3 50 12 100 34 50 22 131 51 181 66 69 21 91 32 91 45 0 19 13 23 129 39 41 6 77 13 80 15 6 7 -32 4 -102 -6z"/>
<path d="M4070 4251 c0 -15 6 -21 21 -21 14 0 19 5 17 17 -5 26 -38 29 -38 4z"/>
<path d="M2500 4186 c0 -49 16 -62 26 -22 8 32 2 58 -13 64 -9 2 -13 -10 -13 -42z"/>
<path d="M2345 4205 c-108 -19 -249 -62 -355 -107 -116 -49 -125 -56 -105 -85 l15 -22 74 34 c131 60 285 105 439 130 34 6 38 9 35 33 -4 32 -13 34 -103 17z"/>
<path d="M2670 4197 c0 -30 26 -40 135 -52 81 -9 220 -46 334 -89 71 -26 98 -33 108 -24 7 6 13 14 13 18 0 9 -117 63 -193 89 -70 24 -261 67 -339 76 -57 7 -58 7 -58 -18z"/>
<path d="M1445 4108 c-235 -172 -420 -374 -567 -620 -30 -51 -39 -74 -34 -93 4 -17 -3 -47 -23 -93 -43 -98 -74 -183 -68 -188 3 -3 12 16 20 41 9 25 33 84 54 131 32 71 41 84 59 81 16 -3 27 7 49 47 44 79 123 194 186 271 64 79 229 242 273 270 28 19 29 19 45 -2 9 -11 24 -35 33 -52 10 -17 24 -34 32 -37 8 -3 59 24 118 63 57 38 129 84 161 102 54 31 69 52 47 66 -9 6 -100 -40 -167 -83 -21 -13 -24 -12 -43 20 -11 18 -20 43 -20 54 0 30 -38 74 -63 74 -12 0 -53 -23 -92 -52z"/>
<path d="M1713 4116 c-13 -6 -23 -14 -23 -18 0 -14 17 -9 41 12 26 21 17 24 -18 6z"/>
<path d="M2423 4103 c-86 -7 -61 -23 36 -23 105 0 135 -9 154 -47 13 -24 13 -31 1 -55 -8 -16 -21 -28 -30 -28 -10 0 -14 -8 -12 -22 2 -13 9 -23 16 -22 6 1 25 2 41 3 19 0 31 7 34 19 4 16 5 16 6 0 0 -10 7 -18 15 -18 9 0 15 21 20 71 4 39 6 73 4 75 -3 2 -29 8 -59 13 l-54 9 47 1 c77 2 268 -36 371 -73 121 -44 137 -53 137 -74 0 -20 -29 -64 -30 -45 0 6 5 15 10 18 19 12 10 35 -20 50 -36 19 -37 19 -37 0 0 -8 4 -15 9 -15 4 0 8 -3 8 -7 0 -5 -11 -8 -25 -8 -27 0 -34 12 -11 21 15 6 11 34 -5 34 -6 0 -49 -117 -49 -135 0 -1 21 -10 46 -20 43 -16 49 -16 74 -2 25 15 29 15 60 -2 19 -10 36 -23 38 -30 2 -6 -11 -3 -30 9 -36 22 -58 26 -58 10 0 -9 79 -55 85 -48 1 2 17 31 34 65 l31 62 -30 16 c-17 9 -35 13 -40 10 -16 -10 -11 -53 8 -64 15 -9 14 -10 -6 -11 -29 0 -37 21 -23 63 7 19 9 40 6 48 -10 25 -236 108 -365 134 -77 16 -314 26 -407 18z m254 -85 c-33 -47 -47 -61 -53 -55 -4 4 8 24 27 45 36 41 52 47 26 10z m416 -128 c9 0 17 -5 17 -10 0 -11 -45 -3 -70 12 -11 7 -8 8 10 4 14 -3 33 -6 43 -6z"/>
<path d="M3650 4088 c0 -14 122 -118 139 -118 21 0 9 16 -51 65 -74 62 -88 70 -88 53z"/>
<path d="M2235 4056 c-182 -53 -328 -122 -397 -190 -26 -25 -56 -46 -67 -46 -30 0 -176 -114 -275 -215 -86 -87 -184 -210 -234 -294 l-23 -39 80 -45 c72 -40 81 -43 86 -27 3 10 23 45 45 79 22 34 36 61 31 61 -4 0 -28 18 -53 39 l-44 39 -44 -64 c-45 -66 -84 -110 -62 -69 20 39 125 180 178 241 48 54 234 225 254 232 9 3 75 -97 68 -103 -2 -3 -19 16 -36 41 l-32 45 -39 -30 c-67 -53 -67 -54 -21 -113 23 -29 45 -54 49 -56 4 -1 13 9 19 23 7 15 17 23 22 20 6 -3 13 0 16 8 2 7 36 37 74 66 l69 53 -28 42 c-39 57 -53 86 -42 86 5 0 23 -22 41 -50 34 -53 40 -56 71 -40 19 10 18 13 -11 68 -16 31 -30 60 -30 64 0 16 201 108 313 143 64 20 119 41 123 46 8 13 -12 10 -101 -15z"/>
<path d="M2408 4062 c-28 -2 -38 -8 -38 -21 0 -14 7 -16 36 -13 19 2 38 11 41 19 7 18 5 19 -39 15z"/>
<path d="M2465 4060 c-3 -6 -3 -41 1 -79 6 -64 8 -69 33 -74 14 -3 29 -3 33 0 14 8 9 43 -6 43 -33 0 -36 82 -4 104 22 16 22 16 -14 16 -20 0 -40 -5 -43 -10z"/>
<path d="M3513 4035 c-18 -38 -28 -43 -37 -20 -8 22 -43 18 -60 -7 -9 -12 -16 -25 -16 -29 0 -3 26 -23 58 -44 31 -21 76 -53 99 -71 46 -37 53 -40 53 -21 0 7 -31 37 -70 65 -47 36 -67 57 -64 67 4 8 10 15 14 15 7 0 102 -69 147 -106 20 -17 16 -40 -9 -57 l-23 -15 63 -68 c119 -131 222 -257 259 -320 40 -67 52 -74 74 -48 11 13 10 22 -9 57 -12 23 -40 66 -62 95 -44 58 -47 67 -25 75 19 8 58 -43 136 -174 35 -58 57 -105 50 -107 -13 -4 29 -82 45 -82 7 0 22 8 34 18 l22 18 -40 79 c-111 220 -310 466 -536 663 -33 29 -66 52 -73 52 -7 0 -21 -16 -30 -35z m284 -301 c56 -63 70 -93 48 -101 -17 -5 -138 135 -131 152 9 25 23 17 83 -51z"/>
<path d="M2725 4028 c-3 -18 -6 -53 -8 -78 -2 -40 1 -45 21 -48 12 -2 22 0 22 5 0 4 5 37 11 72 8 51 7 66 -3 72 -25 16 -37 9 -43 -23z"/>
<path d="M2210 4013 c-58 -20 -107 -37 -108 -39 -2 -1 6 -28 17 -60 12 -31 20 -58 19 -59 -2 -1 -40 -19 -85 -40 -46 -21 -83 -42 -83 -48 0 -12 12 -8 145 47 60 25 143 53 185 63 41 9 76 17 77 18 2 1 -5 36 -14 78 -12 57 -21 77 -32 76 -9 0 -63 -17 -121 -36z m25 -63 c-50 -23 -55 -24 -55 -6 0 15 24 23 70 24 21 0 18 -3 -15 -18z m99 -3 c-7 -20 -134 -58 -134 -41 0 8 12 16 28 20 21 4 77 22 109 33 1 1 0 -5 -3 -12z"/>
<path d="M2796 4028 c-3 -12 -9 -46 -14 -74 l-9 -51 86 -21 c47 -12 95 -24 106 -27 17 -5 23 4 41 62 16 50 19 70 10 75 -24 17 -41 1 -55 -50 -8 -28 -17 -52 -22 -52 -4 0 -1 23 7 51 9 28 13 57 11 64 -3 6 -24 17 -46 22 l-40 11 -15 -47 -15 -46 5 48 c3 27 1 47 -5 47 -5 0 -16 3 -25 6 -10 4 -17 -2 -20 -18z"/>
<path d="M2413 4012 c-28 -3 -33 -7 -33 -30 1 -15 7 -40 14 -57 l14 -30 10 25 c8 18 11 20 11 8 1 -10 7 -18 14 -18 9 0 12 13 9 43 -5 63 -4 62 -39 59z"/>
<path d="M1895 3949 c-60 -38 -60 -38 -53 -44 7 -7 118 57 118 68 0 13 -14 7 -65 -24z"/>
<path d="M1993 3924 c-40 -20 -73 -41 -73 -46 0 -6 10 -27 21 -48 l21 -38 77 36 c42 19 78 37 80 38 7 6 -32 94 -43 94 -6 0 -44 -16 -83 -36z"/>
<path d="M3312 3943 c4 -21 33 -25 33 -3 0 8 -8 16 -18 18 -14 3 -18 -1 -15 -15z"/>
<path d="M3867 3922 c-9 -10 -17 -22 -17 -26 0 -4 32 -43 71 -87 89 -101 173 -215 243 -328 49 -79 53 -92 49 -132 -6 -50 21 -95 60 -101 19 -3 16 -7 -21 -27 -32 -16 -42 -27 -39 -39 3 -9 22 -62 41 -117 35 -98 69 -254 81 -367 l6 -58 56 0 56 0 -6 88 c-8 119 -40 275 -86 409 -36 107 -37 112 -20 127 44 37 28 103 -31 132 -12 7 -40 45 -62 84 -80 149 -310 450 -349 458 -8 1 -23 -6 -32 -16z"/>
<path d="M1704 3919 c-10 -17 13 -36 27 -22 12 12 4 33 -11 33 -5 0 -12 -5 -16 -11z"/>
<path d="M1547 3859 c-48 -33 -95 -72 -103 -85 -9 -13 -26 -24 -39 -24 -32 0 -174 -163 -279 -319 -31 -46 -56 -88 -56 -93 0 -7 59 -38 73 -38 3 0 17 19 32 42 39 59 354 370 463 457 91 73 104 85 79 75 -7 -2 -24 7 -37 21 -13 14 -28 25 -34 25 -6 0 -51 -28 -99 -61z"/>
<path d="M2700 3860 c0 -5 10 -10 23 -10 36 0 203 -48 278 -79 38 -16 69 -25 69 -21 0 13 -152 69 -259 96 -106 27 -111 28 -111 14z"/>
<path d="M1313 3763 c-103 -102 -155 -166 -240 -293 -55 -82 -137 -239 -129 -247 2 -3 26 37 52 88 65 130 159 268 251 370 62 68 143 147 172 166 2 2 2 6 -2 9 -3 3 -50 -38 -104 -93z"/>
<path d="M2306 3843 c-3 -3 -6 -13 -6 -22 0 -11 -29 -25 -100 -48 -90 -29 -237 -99 -227 -109 2 -3 40 14 83 36 43 22 123 54 177 71 77 24 97 34 97 49 0 20 -13 33 -24 23z"/>
<path d="M2415 3831 c-6 -11 9 -23 19 -14 9 9 7 23 -3 23 -6 0 -12 -4 -16 -9z"/>
<path d="M2554 3826 c-11 -29 0 -51 26 -51 21 0 25 5 25 30 0 24 -5 31 -23 33 -13 2 -24 -3 -28 -12z"/>
<path d="M3356 3767 c-46 -72 -45 -83 13 -141 l53 -51 26 34 c54 68 71 86 72 74 0 -6 -19 -35 -41 -63 l-41 -52 90 -90 90 -90 65 50 66 51 -86 98 c-47 54 -94 101 -104 105 -10 4 -47 29 -81 56 -87 67 -90 68 -122 19z m105 -28 c35 -35 7 -78 -43 -66 -30 8 -53 58 -35 76 17 17 55 13 78 -10z m167 -155 c26 -18 29 -60 5 -86 -23 -25 -68 -23 -87 4 -22 31 -20 45 9 73 28 29 42 31 73 9z"/>
<path d="M3390 3727 c0 -20 22 -37 47 -37 25 0 30 19 11 38 -16 16 -58 15 -58 -1z"/>
<path d="M3568 3569 c-24 -14 -23 -56 2 -69 38 -21 80 22 60 61 -12 21 -35 24 -62 8z"/>
<path d="M3585 3760 c-9 -14 1 -27 109 -146 49 -55 114 -132 145 -173 l56 -74 -23 -15 c-12 -8 -22 -19 -22 -25 0 -6 18 -45 39 -87 89 -172 156 -404 168 -582 l6 -88 -82 0 -81 0 0 -40 0 -40 109 0 c121 0 122 0 113 72 -2 24 -10 38 -21 41 -15 3 -19 20 -24 93 -11 165 -87 411 -173 557 -27 46 -32 62 -23 73 19 23 34 16 52 -21 9 -19 21 -35 25 -35 14 0 69 -129 107 -249 33 -104 58 -211 73 -321 5 -39 12 -55 22 -55 47 0 -23 324 -114 528 l-23 53 29 17 c24 14 28 21 22 39 -9 32 -7 32 -55 7 -24 -12 -45 -17 -46 -12 -8 24 -124 213 -161 262 -55 73 -179 209 -202 221 -13 7 -21 7 -25 0z"/>
<path d="M2495 3750 c-100 -8 -197 -27 -290 -57 -65 -21 -215 -93 -215 -104 0 -4 35 10 78 31 66 33 95 41 201 55 68 9 136 18 151 22 22 4 29 1 35 -16 5 -16 15 -21 40 -21 27 0 34 4 39 26 5 20 10 24 19 15 6 -6 46 -11 98 -11 47 0 107 -3 131 -6 l46 -6 -5 -38 -5 -38 53 -17 c30 -10 84 -31 121 -48 l67 -29 -31 -56 -32 -55 55 -49 c30 -26 59 -48 65 -48 6 0 19 9 30 21 10 11 28 25 39 30 11 6 -13 -22 -54 -60 -41 -38 -79 -67 -84 -64 -6 3 -7 1 -3 -5 8 -13 -51 -70 -279 -270 l-160 -141 -3 300 c-1 182 -6 299 -12 299 -12 0 -18 -650 -6 -657 5 -3 12 1 17 9 5 9 62 62 126 119 65 57 176 156 248 219 71 64 163 142 203 174 90 73 103 92 67 106 -14 5 -25 14 -25 20 0 9 -76 72 -116 96 -18 11 -17 14 14 57 l33 46 -73 37 c-193 97 -362 130 -583 114z m596 -299 c-26 -37 -27 -58 -1 -66 18 -6 29 -35 14 -35 -10 0 -64 41 -64 48 0 9 59 82 66 82 3 0 -4 -13 -15 -29z"/>
<path d="M3555 3731 c-3 -5 -1 -12 4 -15 5 -3 11 1 15 9 6 16 -9 21 -19 6z"/>
<path d="M3172 3668 c-18 -18 -15 -43 9 -64 25 -22 52 -10 57 26 6 38 -40 64 -66 38z m43 -27 c7 -12 -12 -24 -25 -16 -11 7 -4 25 10 25 5 0 11 -4 15 -9z"/>
<path d="M1904 3657 c-6 -16 12 -67 24 -67 15 0 32 24 32 46 0 31 -45 48 -56 21z"/>
<path d="M2587 3653 c-38 -6 -29 -27 14 -31 19 -2 38 -7 43 -12 10 -10 -1 -60 -14 -60 -5 0 -21 -5 -37 -11 -35 -13 -20 -23 50 -33 l47 -7 0 80 0 81 -37 -1 c-21 -1 -51 -4 -66 -6z"/>
<path d="M2712 3579 c2 -55 7 -74 20 -83 25 -15 30 -5 36 69 5 70 -2 85 -41 85 -16 0 -18 -8 -15 -71z"/>
<path d="M1570 3625 c-11 -14 -7 -23 30 -60 28 -28 48 -41 58 -37 9 3 -27 -46 -79 -109 -53 -63 -106 -132 -119 -154 -13 -22 -30 -50 -37 -62 -8 -12 -10 -24 -5 -27 5 -3 35 34 66 83 31 49 89 126 129 172 l74 84 -20 35 c-20 37 -66 90 -78 90 -3 0 -12 -7 -19 -15z"/>
<path d="M2316 3619 c-44 -11 -81 -21 -83 -22 -6 -6 43 -121 52 -124 6 -1 16 1 24 6 10 6 11 13 2 29 -6 11 -11 36 -11 55 0 34 2 35 51 47 60 15 69 9 88 -57 11 -41 13 -43 51 -43 l40 0 0 65 0 65 -31 0 -32 0 7 -56 c5 -43 3 -55 -6 -52 -8 3 -13 23 -13 54 0 47 -1 49 -30 51 -16 1 -66 -7 -109 -18z"/>
<path d="M1801 3594 c-36 -30 -38 -43 -13 -74 l19 -23 46 28 c52 30 57 45 25 75 -28 26 -40 25 -77 -6z"/>
<path d="M3270 3602 c0 -5 28 -31 61 -58 34 -27 98 -87 141 -134 44 -47 74 -74 67 -60 -25 49 -269 278 -269 252z"/>
<path d="M1507 3562 l-37 -38 45 -44 45 -44 37 37 38 37 -45 45 -46 45 -37 -38z m37 -26 c-10 -8 -14 -18 -10 -25 6 -9 11 -9 22 0 11 9 14 8 14 -4 0 -27 -22 -31 -42 -7 -17 21 -17 24 -2 41 9 10 21 16 26 13 5 -3 1 -12 -8 -18z"/>
<path d="M2055 3551 c-49 -26 -91 -53 -93 -59 -3 -10 82 -123 97 -130 4 -1 31 16 60 37 61 46 79 63 39 38 -15 -9 -30 -17 -32 -17 -7 0 -56 96 -56 109 0 9 50 41 64 41 2 0 19 -26 37 -57 38 -68 38 -68 44 -61 9 9 -42 143 -56 145 -8 1 -54 -19 -104 -46z"/>
<path d="M2552 3584 c2 -8 6 -15 11 -15 4 1 18 1 32 1 16 0 25 6 25 15 0 11 -11 15 -36 15 -27 0 -35 -4 -32 -16z"/>
<path d="M2342 3581 c-8 -5 -12 -21 -10 -37 2 -23 9 -30 31 -32 31 -4 43 14 33 53 -6 25 -29 32 -54 16z"/>
<path d="M2817 3545 c-8 -18 11 -31 25 -17 11 11 3 32 -12 32 -4 0 -10 -7 -13 -15z"/>
<path d="M3146 3553 c-13 -13 -5 -22 47 -51 28 -16 81 -52 116 -78 110 -83 118 -88 56 -28 -94 89 -206 170 -219 157z"/>
<path d="M2107 3513 c18 -50 53 -81 53 -48 0 8 -4 15 -9 15 -5 0 -12 11 -15 25 -4 14 -13 25 -21 25 -9 0 -12 -6 -8 -17z"/>
<path d="M1445 3491 c-5 -9 80 -81 96 -81 24 0 13 22 -28 54 -49 38 -58 42 -68 27z"/>
<path d="M2403 3483 c-15 -5 -17 -29 -4 -37 14 -9 41 4 41 19 0 15 -19 24 -37 18z"/>
<path d="M2592 3473 c5 -26 38 -29 38 -4 0 15 -6 21 -21 21 -14 0 -19 -5 -17 -17z"/>
<path d="M1708 3413 c-35 -38 -73 -80 -82 -95 -10 -16 -24 -28 -32 -28 -16 0 -44 -39 -44 -61 0 -28 28 -30 57 -4 22 19 26 27 18 41 -12 19 -1 34 104 146 35 37 60 68 54 68 -5 0 -39 -30 -75 -67z"/>
<path d="M1863 3442 c-68 -54 -159 -158 -186 -210 -12 -24 -32 -55 -44 -68 -13 -14 -23 -28 -23 -32 0 -14 131 -85 139 -76 4 5 19 26 34 46 l27 37 -54 40 c-52 39 -74 61 -61 61 4 0 34 -21 67 -46 l60 -45 66 63 c37 35 87 79 111 98 l44 36 -43 44 c-23 25 -49 55 -57 68 -8 12 -19 22 -23 22 -5 0 -30 -17 -57 -38z"/>
<path d="M2782 3448 c2 -12 10 -23 18 -23 22 0 19 39 -3 43 -15 3 -18 -1 -15 -20z"/>
<path d="M3687 3423 l-58 -45 22 -24 22 -24 37 21 c21 12 51 32 66 44 l29 23 -24 26 c-14 14 -27 26 -30 26 -3 -1 -32 -21 -64 -47z"/>
<path d="M1410 3445 c-14 -17 2 -41 53 -77 29 -21 29 -21 49 -1 20 20 20 20 -25 57 -49 40 -59 43 -77 21z"/>
<path d="M2294 3446 c-8 -21 13 -46 32 -39 20 8 13 47 -9 51 -9 2 -20 -4 -23 -12z"/>
<path d="M2870 3435 c-15 -18 -5 -35 21 -35 12 0 19 7 19 19 0 24 -25 34 -40 16z"/>
<path d="M2183 3404 c-8 -21 13 -42 28 -27 13 13 5 43 -11 43 -6 0 -13 -7 -17 -16z"/>
<path d="M3758 3340 c-43 -27 -78 -53 -78 -56 0 -3 12 -20 26 -37 14 -16 39 -56 55 -89 l29 -58 60 30 c33 17 60 34 60 38 -2 23 -59 118 -74 120 -10 2 -36 -8 -58 -23 -27 -18 -43 -24 -50 -17 -19 19 -1 38 71 81 39 23 69 46 66 52 -11 16 -29 10 -107 -41z"/>
<path d="M2091 3357 c-8 -10 -7 -19 4 -33 13 -18 15 -18 31 -2 18 18 13 48 -9 48 -8 0 -20 -6 -26 -13z"/>
<path d="M2972 3358 c-18 -18 -14 -38 7 -38 20 0 35 25 25 41 -7 12 -18 11 -32 -3z"/>
<path d="M3040 3310 c0 -5 5 -10 10 -10 6 0 10 5 10 10 0 6 -4 10 -10 10 -5 0 -10 -4 -10 -10z"/>
<path d="M2035 3300 c3 -5 8 -10 11 -10 2 0 4 5 4 10 0 6 -5 10 -11 10 -5 0 -7 -4 -4 -10z"/>
<path d="M2883 3299 c-20 -26 -44 -79 -34 -79 12 0 53 69 49 82 -2 6 -9 4 -15 -3z"/>
<path d="M3538 3285 c-10 -22 -9 -29 10 -47 18 -18 26 -20 49 -12 53 18 38 84 -18 84 -22 0 -32 -7 -41 -25z"/>
<path d="M3450 3296 c0 -2 8 -10 18 -17 15 -13 16 -12 3 4 -13 16 -21 21 -21 13z"/>
<path d="M1020 3250 c-26 -50 -25 -54 5 -68 24 -11 27 -9 47 33 18 36 19 46 8 59 -20 26 -38 19 -60 -24z"/>
<path d="M3320 3280 c0 -5 5 -10 10 -10 6 0 10 5 10 10 0 6 -4 10 -10 10 -5 0 -10 -4 -10 -10z"/>
<path d="M2170 3268 c0 -17 50 -98 60 -98 16 0 12 10 -21 62 -32 50 -39 56 -39 36z"/>
<path d="M3216 3242 c-14 -23 -29 -42 -31 -42 -3 0 2 11 11 25 9 14 13 25 10 25 -7 0 -131 -111 -441 -394 -66 -60 -124 -113 -129 -117 -5 -4 2 -22 14 -39 45 -63 26 -144 -42 -184 -56 -34 -142 -10 -150 42 l-4 29 34 -24 c19 -12 45 -23 58 -23 35 0 74 40 81 82 5 32 1 41 -26 69 -27 26 -37 30 -64 25 -41 -8 -77 -48 -77 -87 0 -19 -5 -29 -15 -29 -11 0 -15 11 -15 40 0 51 46 106 97 116 35 7 35 7 29 47 -9 52 -14 59 -35 48 -15 -9 -20 1 -42 78 -21 77 -23 91 -11 109 20 30 0 62 -38 62 -50 0 -62 -62 -15 -80 13 -5 25 -20 28 -37 3 -15 15 -71 26 -125 l21 -96 -35 -35 c-33 -33 -40 -54 -36 -113 2 -17 -17 -28 -121 -68 -183 -71 -356 -147 -508 -220 -74 -35 -137 -63 -141 -60 -6 3 -28 113 -43 219 -3 17 -3 -4 -1 -46 3 -62 28 -191 41 -207 1 -2 40 11 86 28 107 42 341 121 345 117 3 -4 -318 -128 -384 -149 -29 -9 -43 -19 -43 -30 0 -10 5 -18 11 -18 11 0 448 174 483 192 12 6 23 14 26 18 8 10 203 78 222 77 9 0 15 -4 12 -9 -3 -5 -10 -6 -15 -3 -9 6 -25 -22 -17 -30 2 -3 30 0 63 5 61 10 80 5 80 -20 0 -21 44 -25 58 -6 9 12 24 15 55 13 27 -2 47 1 53 10 6 7 15 11 19 8 5 -3 95 -95 200 -205 192 -201 192 -201 174 -223 -18 -22 -18 -22 1 -5 18 17 21 16 61 -30 38 -43 44 -46 63 -34 20 11 27 7 85 -52 l63 -65 -21 -20 c-15 -16 -17 -23 -8 -31 6 -6 10 -7 7 -3 -8 10 26 43 45 43 23 0 54 -36 47 -55 -4 -8 -14 -15 -23 -15 -13 0 -14 3 -4 15 15 18 5 35 -21 35 -19 0 -27 -29 -11 -44 4 -4 7 -13 7 -19 0 -16 53 -21 71 -6 18 15 18 73 0 89 -8 6 -34 21 -58 33 -27 14 -43 28 -42 39 1 9 -4 14 -10 12 -7 -3 -21 5 -31 16 -18 20 -18 21 7 48 14 15 33 39 42 53 15 23 15 27 2 32 -10 4 -26 -9 -47 -36 -18 -23 -36 -46 -41 -52 -10 -12 -130 104 -121 118 3 6 1 7 -4 4 -6 -4 -48 35 -94 85 -46 51 -144 157 -216 235 l-133 142 0 59 c0 36 -6 66 -15 78 -8 10 -15 22 -15 26 0 5 286 276 461 436 l59 53 24 -28 c14 -15 23 -35 20 -44 -6 -21 29 -64 45 -55 9 6 8 13 -3 32 -31 46 -8 48 34 2 28 -31 30 -31 49 -14 19 17 20 17 35 -13 18 -35 7 -48 -26 -30 -22 12 -22 12 -6 -12 9 -13 22 -22 30 -20 7 2 20 5 28 8 10 3 22 -9 34 -34 10 -21 21 -33 23 -26 10 28 -84 173 -179 278 l-45 49 -27 -42z"/>
<path d="M1987 3255 c-4 -8 -13 -15 -22 -15 -8 0 -15 -7 -15 -15 0 -19 9 -19 49 1 33 16 37 37 9 42 -9 2 -18 -4 -21 -13z"/>
<path d="M1120 3241 c0 -5 5 -13 10 -16 6 -3 10 -2 10 4 0 5 -4 13 -10 16 -5 3 -10 2 -10 -4z"/>
<path d="M3376 3243 c-11 -11 -6 -23 9 -23 8 0 15 4 15 9 0 13 -16 22 -24 14z"/>
<path d="M1150 3170 c-13 -28 -25 -50 -27 -50 -2 0 -17 7 -34 15 -33 17 -49 13 -49 -13 0 -15 2 -15 10 -2 5 8 10 11 10 7 0 -4 -7 -18 -16 -32 -14 -22 -14 -24 5 -34 31 -17 37 -14 39 21 3 38 4 39 21 29 10 -7 10 -14 -3 -40 -9 -17 -16 -32 -16 -33 1 -2 -2 -11 -5 -20 -4 -9 -14 -43 -24 -75 -15 -50 -21 -58 -43 -61 -23 -3 -27 -9 -38 -65 -6 -34 -14 -108 -17 -164 l-6 -103 25 0 c30 0 38 16 38 75 0 106 70 377 127 488 34 68 43 96 34 101 -4 3 -18 -17 -31 -44z"/>
<path d="M1172 3123 c-52 -111 -85 -208 -111 -328 -26 -119 -39 -271 -23 -261 7 4 12 33 12 71 0 35 3 66 8 68 4 3 46 2 94 -2 l86 -6 5 40 c4 45 1 53 -14 38 -19 -19 -39 -3 -39 29 0 22 6 31 21 35 16 4 17 8 7 14 -7 5 -16 9 -19 9 -10 0 -31 -89 -24 -101 4 -5 2 -9 -4 -9 -19 0 -21 18 -6 66 8 27 15 50 15 51 0 1 -18 4 -40 8 -22 4 -43 11 -46 17 -4 7 5 7 27 2 57 -13 73 -10 77 11 7 36 21 39 16 3 -5 -26 -2 -37 9 -41 11 -4 20 13 37 70 12 42 31 96 42 120 19 43 19 45 1 59 -17 14 -17 14 4 12 13 -2 29 6 38 17 20 24 20 25 -33 -107 -23 -59 -45 -129 -48 -155 -9 -68 8 -45 36 47 28 94 59 162 72 154 5 -3 13 -16 18 -28 l9 -21 0 22 c1 34 12 52 27 46 17 -6 18 -35 2 -51 -6 -6 -9 -15 -5 -19 4 -3 14 2 22 13 17 23 37 74 27 72 -4 -2 -59 25 -123 60 -64 34 -121 62 -126 62 -5 0 -28 -39 -51 -87z"/>
<path d="M4110 3200 c0 -5 5 -10 11 -10 5 0 7 5 4 10 -3 6 -8 10 -11 10 -2 0 -4 -4 -4 -10z"/>
<path d="M1910 3165 c-32 -34 -16 -46 16 -13 14 14 22 28 16 31 -5 4 -20 -5 -32 -18z"/>
<path d="M907 3143 c-41 -93 -93 -303 -96 -386 l-1 -58 32 3 c35 3 33 -2 68 148 12 52 37 142 56 199 19 58 31 108 26 113 -4 4 -21 10 -38 14 -28 5 -32 2 -47 -33z"/>
<path d="M1075 3160 c3 -5 10 -10 16 -10 5 0 9 5 9 10 0 6 -7 10 -16 10 -8 0 -12 -4 -9 -10z"/>
<path d="M3440 3140 c0 -5 5 -10 11 -10 5 0 7 5 4 10 -3 6 -8 10 -11 10 -2 0 -4 -4 -4 -10z"/>
<path d="M3618 3140 c-22 -13 -17 -60 15 -130 32 -71 73 -202 82 -262 7 -43 5 -47 -16 -50 -32 -4 -37 -28 -6 -28 20 0 27 6 32 28 8 40 -20 163 -61 262 -49 118 -48 113 -15 132 l29 16 35 -81 c62 -145 79 -223 84 -407 6 -199 -8 -300 -68 -470 -22 -63 -43 -126 -45 -140 -11 -54 26 29 66 148 35 107 50 175 65 305 4 31 11 47 21 47 19 0 18 16 -1 24 -11 4 -15 21 -15 63 0 135 -42 321 -101 453 -43 94 -63 112 -101 90z"/>
<path d="M3853 3115 c-29 -13 -53 -28 -53 -32 0 -4 9 -31 20 -60 11 -29 27 -82 36 -118 14 -54 20 -65 33 -59 9 4 38 12 65 18 l48 10 -6 42 c-7 51 -67 216 -81 221 -5 1 -34 -8 -62 -22z m81 -126 c-17 -3 -36 -9 -42 -13 -7 -4 -12 -3 -12 3 0 12 61 30 75 22 5 -3 -4 -8 -21 -12z m35 -53 c15 -18 3 -46 -19 -46 -10 0 -25 -3 -33 -6 -22 -8 -42 32 -26 52 15 18 63 18 78 0z"/>
<path d="M3911 2931 c-8 -5 -11 -16 -8 -24 5 -13 10 -14 31 -4 27 13 29 30 5 34 -8 2 -20 -1 -28 -6z"/>
<path d="M2520 3100 c0 -5 5 -10 10 -10 6 0 10 5 10 10 0 6 -4 10 -10 10 -5 0 -10 -4 -10 -10z"/>
<path d="M2712 3098 c-25 -25 -6 -68 30 -68 22 0 35 45 18 65 -15 18 -32 19 -48 3z"/>
<path d="M3130 3106 c0 -2 8 -10 18 -17 15 -13 16 -12 3 4 -13 16 -21 21 -21 13z"/>
<path d="M1805 3090 c-8 -13 3 -30 20 -30 14 0 27 24 18 34 -10 9 -31 7 -38 -4z"/>
<path d="M2775 3070 c0 -24 2 -27 13 -16 7 7 10 20 6 29 -10 26 -19 20 -19 -13z"/>
<path d="M1615 3083 c6 -6 28 -20 50 -32 22 -13 31 -15 20 -6 -22 18 -86 53 -70 38z"/>
<path d="M3100 3062 c-51 -60 -54 -65 -20 -38 36 29 55 54 48 62 -3 2 -15 -8 -28 -24z"/>
<path d="M3160 3066 c0 -2 8 -10 18 -17 15 -13 16 -12 3 4 -13 16 -21 21 -21 13z"/>
<path d="M3472 3048 c5 -15 28 -18 29 -3 0 6 -7 12 -17 13 -10 3 -15 -1 -12 -10z"/>
<path d="M1550 3029 c-10 -17 -9 -23 1 -30 24 -15 44 -5 44 21 0 32 -30 38 -45 9z"/>
<path d="M1026 2993 c-18 -52 -20 -73 -8 -73 5 0 16 24 25 53 20 62 20 67 8 67 -5 0 -16 -21 -25 -47z"/>
<path d="M3110 3000 c-19 -16 -31 -29 -26 -30 10 0 86 50 86 56 0 13 -31 0 -60 -26z"/>
<path d="M3275 3010 c-4 -7 -3 -16 3 -22 14 -14 45 -2 40 15 -6 16 -34 21 -43 7z"/>
<path d="M4035 3010 c-7 -12 8 -73 40 -160 13 -36 27 -90 31 -120 4 -30 10 -62 15 -70 10 -18 4 26 -23 175 -29 166 -44 206 -63 175z"/>
<path d="M1695 2970 c-10 -23 -22 -43 -26 -45 -4 -3 -39 9 -77 25 -39 17 -75 30 -80 30 -24 0 -118 -357 -100 -376 3 -2 8 17 12 45 5 42 10 50 36 61 25 10 41 10 91 -4 33 -10 62 -16 63 -14 1 2 13 46 25 98 13 52 36 121 53 153 16 33 27 61 25 63 -2 2 -12 -14 -22 -36z"/>
<path d="M1770 2995 c-14 -17 -5 -36 15 -28 16 6 21 43 6 43 -5 0 -14 -7 -21 -15z"/>
<path d="M3493 2994 c-9 -23 13 -40 32 -24 12 10 13 16 4 26 -15 18 -28 18 -36 -2z"/>
<path d="M4164 2986 c-3 -8 2 -48 11 -88 9 -40 21 -118 28 -173 11 -83 16 -100 31 -103 26 -5 34 13 29 66 -6 64 -42 257 -53 287 -10 27 -37 33 -46 11z"/>
<path d="M1397 2931 c-40 -99 -89 -363 -71 -381 6 -6 10 14 12 53 4 79 27 192 58 286 26 79 27 108 1 42z"/>
<path d="M695 2920 c-4 -23 -5 -43 -2 -46 2 -3 7 14 11 37 4 23 5 44 2 46 -2 2 -7 -14 -11 -37z"/>
<path d="M1849 2936 c-16 -35 -4 -74 25 -82 56 -14 91 29 67 82 -15 35 -77 35 -92 0z"/>
<path d="M2051 2936 c-7 -8 -11 -27 -9 -43 3 -25 7 -28 38 -28 31 0 35 3 38 30 5 44 -41 72 -67 41z"/>
<path d="M3406 2930 c3 -14 10 -29 15 -34 14 -16 10 6 -7 34 l-15 25 7 -25z"/>
<path d="M3315 2920 c-4 -7 -3 -16 3 -22 14 -14 45 -2 40 15 -6 16 -34 21 -43 7z"/>
<path d="M939 2888 c-2 -3 -2 -5 -18 -128 -14 -108 -14 -120 2 -120 9 0 19 35 30 113 21 137 21 137 2 137 -8 0 -16 -1 -16 -2z"/>
<path d="M676 2836 c-12 -49 -27 -247 -24 -316 l3 -75 86 -3 c86 -3 87 -3 93 23 12 46 -1 64 -47 67 l-42 3 0 65 c0 36 4 103 9 150 l8 85 -40 11 c-37 10 -41 9 -46 -10z"/>
<path d="M3941 2844 c-35 -7 -65 -15 -66 -16 -1 -2 4 -46 11 -98 7 -52 13 -105 13 -117 1 -20 7 -22 77 -25 l76 -3 -7 60 c-11 106 -9 103 -68 94 -28 -5 -53 -6 -56 -4 -10 10 11 18 58 23 50 4 50 5 44 36 -13 65 -11 64 -82 50z m54 -174 c9 8 15 9 15 2 0 -6 -5 -14 -11 -17 -15 -10 -61 4 -54 16 5 7 12 6 21 -2 11 -9 17 -9 29 1z"/>
<path d="M3336 2833 c-11 -11 -6 -23 9 -23 8 0 15 4 15 9 0 13 -16 22 -24 14z"/>
<path d="M1715 2778 c-17 -57 -19 -78 -7 -78 11 0 40 120 31 126 -4 2 -15 -19 -24 -48z"/>
<path d="M3580 2795 c-26 -32 13 -81 48 -59 34 22 22 74 -18 74 -10 0 -23 -7 -30 -15z"/>
<path d="M1206 2784 c-9 -23 -8 -24 14 -24 13 0 20 7 20 20 0 24 -25 27 -34 4z"/>
<path d="M3500 2716 c0 -22 17 -28 24 -10 9 22 8 24 -9 24 -8 0 -15 -6 -15 -14z"/>
<path d="M3377 2714 c-13 -13 -7 -24 14 -24 11 0 19 5 17 12 -5 14 -22 21 -31 12z"/>
<path d="M3560 2680 c0 -13 7 -20 20 -20 13 0 20 7 20 20 0 13 -7 20 -20 20 -13 0 -20 -7 -20 -20z"/>
<path d="M3627 2693 c-14 -13 -6 -33 13 -33 13 0 20 7 20 20 0 19 -20 27 -33 13z"/>
<path d="M1458 2668 c-27 -22 -30 -53 -7 -81 23 -31 45 -34 77 -11 26 18 30 65 6 88 -19 19 -54 21 -76 4z"/>
<path d="M1060 2598 c0 -52 -4 -70 -15 -74 -8 -4 -15 -12 -15 -20 0 -11 21 -14 100 -14 l100 0 0 53 c0 28 1 63 2 77 3 24 0 25 -84 35 l-88 11 0 -68z"/>
<path d="M3012 2658 c-7 -7 -12 -26 -12 -43 0 -38 16 -55 50 -55 31 0 60 28 60 57 0 42 -68 71 -98 41z"/>
<path d="M3255 2640 c-21 -23 -13 -39 10 -20 21 18 47 5 43 -22 -2 -17 -9 -22 -26 -21 -30 4 -28 -15 4 -29 22 -11 28 -10 40 7 45 61 -21 140 -71 85z"/>
<path d="M830 2640 c0 -5 5 -10 10 -10 6 0 10 5 10 10 0 6 -4 10 -10 10 -5 0 -10 -4 -10 -10z"/>
<path d="M3436 2526 c-6 -106 -32 -245 -48 -262 -3 -2 -18 0 -33 6 -19 7 -26 15 -22 28 3 9 14 45 24 80 15 55 20 62 43 63 24 1 24 1 -5 10 -36 10 -39 7 -54 -56 -17 -70 -73 -185 -126 -261 -25 -36 -45 -68 -45 -72 1 -8 58 -72 65 -72 8 0 105 143 105 155 0 7 -10 19 -22 27 -16 11 -20 20 -14 41 8 35 36 35 95 2 50 -29 61 -31 61 -10 0 8 -6 15 -14 15 -25 0 -37 25 -26 56 9 26 15 29 53 29 39 0 42 2 45 29 4 29 -10 46 -37 46 -10 0 -12 -8 -7 -31 4 -22 2 -29 -7 -26 -7 2 -11 18 -10 38 2 19 6 82 9 142 l7 107 39 0 c32 0 39 3 36 18 -2 13 -15 18 -54 20 l-51 3 -7 -125z"/>
<path d="M1720 2615 c-7 -8 -16 -12 -20 -10 -9 5 3 -46 15 -65 10 -16 50 -12 68 8 22 24 21 38 -3 62 -24 24 -43 25 -60 5z"/>
<path d="M3572 2622 c-9 -6 -12 -38 -10 -123 l3 -114 65 0 65 0 0 120 0 120 -55 3 c-30 1 -61 -2 -68 -6z m98 -117 l0 -85 -40 0 -40 0 0 85 0 85 40 0 40 0 0 -85z"/>
<path d="M3620 2535 c0 -8 5 -15 10 -15 6 0 10 7 10 15 0 8 -4 15 -10 15 -5 0 -10 -7 -10 -15z"/>
<path d="M3615 2470 c-3 -5 1 -10 10 -10 9 0 13 5 10 10 -3 6 -8 10 -10 10 -2 0 -7 -4 -10 -10z"/>
<path d="M914 2597 c-13 -55 20 -332 56 -466 16 -59 22 -46 10 20 -16 79 -40 267 -40 306 0 31 2 33 35 33 25 0 35 4 35 15 0 13 -7 15 -35 9 l-35 -6 0 56 c0 57 -15 76 -26 33z"/>
<path d="M4143 2604 c-8 -22 10 -119 22 -117 6 2 11 32 13 68 2 54 0 65 -13 65 -9 0 -18 -7 -22 -16z"/>
<path d="M2014 2595 c-9 -23 4 -47 23 -43 22 4 30 38 11 49 -19 13 -28 11 -34 -6z"/>
<path d="M3740 2545 c0 -30 5 -55 10 -55 6 0 10 25 10 55 0 30 -4 55 -10 55 -5 0 -10 -25 -10 -55z"/>
<path d="M3500 2575 c0 -8 7 -15 15 -15 8 0 15 7 15 15 0 8 -7 15 -15 15 -8 0 -15 -7 -15 -15z"/>
<path d="M4235 2580 c-3 -5 1 -10 9 -10 9 0 16 5 16 10 0 6 -4 10 -9 10 -6 0 -13 -4 -16 -10z"/>
<path d="M1410 2535 c0 -10 10 -15 33 -15 30 1 31 1 13 15 -25 19 -46 19 -46 0z"/>
<path d="M1535 2535 c-22 -7 -35 -14 -30 -15 20 -4 70 2 78 10 16 15 -8 17 -48 5z"/>
<path d="M3500 2530 c0 -5 7 -10 15 -10 8 0 15 5 15 10 0 6 -7 10 -15 10 -8 0 -15 -4 -15 -10z"/>
<path d="M4221 2520 c-8 -4 -11 -27 -9 -61 2 -43 7 -55 22 -57 25 -5 36 14 36 69 0 37 -4 48 -19 52 -10 2 -24 1 -30 -3z"/>
<path d="M4334 2516 c-3 -8 -4 -29 -2 -48 l3 -33 61 -3 62 -3 6 34 c11 58 2 67 -65 67 -42 0 -61 -4 -65 -14z"/>
<path d="M1295 2512 c30 -7 30 -8 38 -95 9 -105 44 -245 87 -353 34 -85 102 -205 128 -226 9 -7 5 6 -11 32 -112 185 -185 406 -199 605 -3 38 -5 40 -38 42 -34 1 -34 1 -5 -5z"/>
<path d="M3394 2505 c-7 -17 4 -37 17 -30 12 8 12 45 -1 45 -6 0 -13 -7 -16 -15z"/>
<path d="M1511 2460 c-41 -22 -76 -38 -79 -36 -2 3 -8 20 -12 38 -8 32 -8 32 -9 -12 -1 -61 25 -200 40 -214 9 -8 10 -6 5 9 -4 11 -12 42 -17 70 -6 27 -12 61 -15 75 -3 16 -2 21 4 15 5 -5 14 -42 21 -80 17 -100 16 -99 95 -79 l68 17 -7 31 c-11 57 -24 189 -19 197 7 13 7 12 -75 -31z"/>
<path d="M1432 2473 c2 -10 10 -18 18 -18 8 0 16 8 18 18 2 12 -3 17 -18 17 -15 0 -20 -5 -18 -17z"/>
<path d="M3500 2476 c0 -10 9 -16 21 -16 24 0 21 23 -4 28 -10 2 -17 -3 -17 -12z"/>
<path d="M1687 2443 c-4 -6 -3 -21 1 -34 11 -29 21 -12 12 21 -3 15 -9 20 -13 13z"/>
<path d="M984 2429 c-8 -13 22 -22 51 -15 22 6 25 2 30 -31 23 -144 52 -266 91 -382 48 -145 53 -187 9 -70 -47 121 -85 260 -97 352 -9 59 -17 87 -26 87 -14 0 -13 -8 15 -150 17 -90 87 -302 113 -348 l19 -32 -49 -25 c-84 -43 -59 -74 28 -35 38 17 42 22 36 45 -8 33 4 32 16 -1 6 -14 13 -23 17 -21 5 3 38 23 75 46 65 39 68 40 78 21 7 -13 7 -20 1 -20 -17 0 -121 -70 -121 -80 0 -6 2 -10 5 -10 12 0 71 33 104 58 27 20 35 22 42 11 13 -21 13 -21 -61 -64 -38 -22 -70 -44 -70 -50 -1 -5 -12 4 -25 20 -17 20 -25 25 -25 14 0 -9 -11 -21 -25 -27 -31 -14 -31 -20 -2 -56 23 -28 23 -28 56 -12 23 12 31 22 27 33 -5 13 -4 14 9 3 22 -18 19 -37 -9 -55 -13 -9 -27 -23 -30 -30 -7 -18 131 -179 157 -183 11 -2 17 1 13 6 -4 6 -2 13 4 17 5 3 40 -21 78 -54 37 -33 111 -94 164 -135 78 -60 99 -72 108 -61 9 10 5 17 -19 31 -26 15 -28 21 -20 43 9 24 8 25 -6 7 -20 -26 -28 -21 -215 135 -98 82 -162 129 -177 129 -26 0 -58 42 -49 65 10 26 43 16 71 -22 53 -72 118 -133 136 -128 11 4 37 -15 79 -60 35 -36 69 -65 76 -65 12 0 87 101 100 135 8 19 -188 230 -236 255 -60 31 -192 271 -236 428 -17 62 -34 82 -34 40 0 -13 18 -75 39 -138 41 -118 47 -159 12 -77 -30 69 -50 132 -57 178 -8 48 -19 54 -70 40 -21 -6 -42 -7 -47 -2 -5 5 9 12 30 15 61 11 73 16 73 32 0 17 -12 18 -28 2 -9 -9 -12 -7 -12 11 0 18 -5 22 -27 19 -16 -2 -29 -9 -29 -15 -3 -27 -6 -27 -15 -4 -5 13 -7 26 -4 29 3 3 30 7 60 10 l55 4 0 37 c0 20 -3 53 -6 74 l-7 37 -119 -1 c-65 -1 -121 -5 -124 -10z m239 -326 c4 -19 2 -33 -3 -33 -6 0 -10 8 -10 18 0 9 -3 28 -6 42 -5 17 -3 22 3 15 6 -5 13 -25 16 -42z m2 -78 c-27 -13 -54 -24 -59 -24 -19 -2 15 24 47 36 56 20 64 12 12 -12z m248 -325 c-3 -3 -8 1 -10 8 -4 10 -9 9 -24 -4 -25 -22 -24 -41 2 -55 16 -8 28 -8 45 0 27 12 29 22 12 54 -11 21 -10 21 8 7 21 -16 43 -42 44 -50 0 -3 -21 -29 -46 -58 l-45 -52 25 -33 c41 -54 30 -54 -16 -2 -70 79 -98 117 -98 132 0 7 19 34 42 59 42 45 42 45 54 22 7 -13 10 -25 7 -28z m-218 -1 c-4 -5 -16 -9 -28 -9 -20 0 -20 0 -2 14 21 15 40 12 30 -5z m14 -30 c-8 -5 -21 -9 -29 -9 -12 1 -11 4 4 15 10 8 23 12 29 8 5 -3 3 -9 -4 -14z m313 -16 c14 -21 56 -71 93 -110 75 -81 77 -99 3 -26 -45 45 -49 46 -65 30 -16 -16 -15 -19 26 -61 23 -24 39 -46 34 -49 -5 -4 -32 16 -59 44 l-49 49 30 24 29 24 -37 47 c-33 43 -44 65 -33 65 2 0 15 -17 28 -37z m-173 -166 c6 -8 8 -17 4 -20 -7 -8 -33 11 -33 24 0 13 16 11 29 -4z"/>
<path d="M3894 2365 c-11 -85 -16 -79 80 -91 71 -8 76 -3 76 84 0 38 4 62 11 62 7 0 9 -14 5 -37 -3 -21 -8 -64 -11 -95 -4 -32 -11 -58 -16 -58 -5 0 -9 -8 -9 -19 0 -37 -49 -212 -84 -298 -21 -54 -32 -91 -26 -97 28 -28 140 335 165 537 5 35 11 47 23 47 13 0 11 5 -8 20 -20 16 -41 20 -111 20 l-86 0 -9 -75z"/>
<path d="M3502 2418 c6 -18 28 -21 28 -4 0 9 -7 16 -16 16 -9 0 -14 -5 -12 -12z"/>
<path d="M4150 2400 c0 -20 -7 -33 -22 -41 -33 -17 -33 -17 -8 -44 l23 -24 -17 -93 c-19 -101 -86 -314 -115 -364 l-19 -32 26 7 c23 6 32 22 65 117 50 142 85 296 93 412 6 81 5 92 -10 92 -11 0 -16 -9 -16 -30z m0 -64 c0 -3 -4 -8 -10 -11 -5 -3 -10 -1 -10 4 0 6 5 11 10 11 6 0 10 -2 10 -4z"/>
<path d="M813 2404 c-9 -24 3 -168 22 -258 24 -117 70 -246 135 -383 64 -134 85 -155 126 -128 25 16 31 44 14 75 -8 15 -4 20 21 30 16 7 28 15 25 17 -2 2 -18 -3 -35 -11 l-31 -16 -27 42 c-35 56 -96 212 -122 313 -24 93 -51 245 -51 286 0 42 -63 69 -77 33z"/>
<path d="M973 2293 c10 -117 29 -202 44 -197 7 2 19 6 27 8 11 4 10 21 -5 98 -10 51 -19 108 -19 126 0 28 -3 32 -26 32 l-27 0 6 -67z"/>
<path d="M657 2343 c-7 -12 19 -181 43 -272 35 -136 126 -371 144 -371 17 0 76 33 76 43 0 6 -13 40 -29 74 -56 117 -113 318 -127 443 -3 36 -11 71 -17 78 -10 13 -83 17 -90 5z"/>
<path d="M4335 2303 c-22 -172 -60 -316 -122 -461 -19 -45 -32 -89 -29 -97 3 -8 0 -15 -7 -15 -7 0 -32 -33 -54 -72 -94 -165 -191 -284 -362 -441 -75 -69 -111 -96 -125 -93 -12 3 -43 -13 -83 -41 -54 -39 -64 -50 -61 -72 3 -22 -5 -31 -54 -60 -35 -20 -58 -41 -58 -51 0 -24 -122 -82 -285 -135 -110 -36 -190 -54 -357 -80 -19 -3 -30 2 -42 20 -10 15 -27 25 -48 27 l-33 3 -3 93 c-2 73 -6 92 -17 92 -11 0 -15 -14 -15 -56 0 -55 0 -56 -26 -51 -30 5 -64 -22 -64 -51 0 -11 -11 -24 -25 -30 -14 -6 -25 -18 -25 -27 0 -36 -228 -2 -437 66 -166 54 -433 191 -433 223 0 6 11 31 25 55 28 48 29 51 16 51 -5 0 -22 -20 -38 -45 l-30 -46 -119 110 c-192 176 -271 264 -374 416 -52 78 -74 90 -104 59 -26 -25 -19 -55 31 -129 127 -190 410 -479 571 -582 31 -20 82 -53 112 -73 162 -109 435 -202 685 -233 l100 -12 3 -34 3 -34 -78 7 c-271 24 -537 109 -766 246 -142 85 -197 127 -197 149 0 12 -28 43 -73 79 -145 120 -337 333 -436 485 -24 37 -46 65 -49 63 -8 -9 99 -172 184 -279 130 -162 388 -418 495 -489 89 -59 315 -170 414 -203 194 -66 455 -103 536 -77 19 7 77 16 129 22 282 29 440 67 689 166 91 36 173 63 183 61 10 -3 18 -2 18 2 0 14 61 29 100 24 35 -5 43 -2 70 27 20 21 30 42 30 64 0 24 8 36 36 56 60 41 224 186 305 270 168 175 320 429 395 660 32 97 73 271 64 265 -5 -3 -14 -29 -20 -57 -70 -294 -262 -607 -525 -856 -94 -89 -247 -212 -264 -212 -6 0 -31 43 -31 54 0 2 44 39 98 83 179 147 318 297 437 472 43 64 55 90 51 107 -4 13 -2 24 3 24 13 0 85 154 120 260 33 98 68 258 73 330 l3 45 -52 3 -52 3 -6 -48z m-647 -1450 c2 -14 -7 -29 -31 -47 -41 -32 -54 -33 -63 -4 -5 17 0 28 27 50 38 32 63 33 67 1z"/>
<path d="M4186 2233 c-10 -60 -40 -173 -67 -253 -60 -175 -61 -184 -31 -188 19 -3 26 5 46 51 59 133 103 287 131 460 6 37 6 37 -27 37 l-34 0 -18 -107z"/>
<path d="M3597 2303 c-7 -35 5 -50 43 -55 27 -4 30 -1 36 30 7 39 -4 52 -47 52 -21 0 -28 -6 -32 -27z"/>
<path d="M3108 2231 c18 -17 38 -31 45 -31 13 0 -25 34 -58 51 -11 6 -5 -4 13 -20z"/>
<path d="M3865 2228 c-10 -50 -64 -196 -97 -260 -15 -32 -26 -58 -22 -58 3 0 -8 -16 -25 -35 -17 -20 -31 -40 -31 -45 0 -16 18 -11 28 6 8 15 16 13 70 -20 33 -20 64 -36 70 -36 11 0 82 137 82 158 0 6 -24 18 -52 27 -29 10 -57 21 -62 26 -6 5 -2 32 9 69 22 74 31 72 12 -3 l-14 -54 54 -17 c31 -10 59 -14 63 -9 14 15 42 113 37 127 -6 16 -101 41 -117 31 -13 -8 -13 17 1 74 5 24 8 46 5 48 -2 2 -7 -11 -11 -29z m-47 -363 c45 -31 66 -55 46 -55 -17 0 -123 73 -119 81 9 14 17 11 73 -26z"/>
<path d="M3890 2244 c1 -23 23 -54 39 -54 7 0 10 -4 7 -9 -9 -14 -46 0 -47 18 0 10 -4 7 -10 -8 -5 -13 -8 -25 -7 -27 6 -5 122 -33 125 -30 9 9 29 107 22 111 -4 3 -35 8 -68 11 -55 6 -61 5 -61 -12z"/>
<path d="M3641 2189 c-7 -23 -15 -48 -17 -58 -3 -9 1 -5 9 9 15 25 32 90 24 90 -2 0 -9 -18 -16 -41z"/>
<path d="M1520 2207 c-29 -14 -37 -53 -18 -79 12 -17 16 -17 71 4 37 13 57 26 57 37 0 13 -2 13 -9 2 -7 -10 -11 -5 -16 18 -5 25 -11 31 -33 31 -15 0 -38 -6 -52 -13z"/>
<path d="M2013 2200 c-29 -17 -44 -40 -27 -40 15 0 64 36 64 47 0 16 1 17 -37 -7z"/>
<path d="M3335 2210 c-8 -13 4 -32 16 -25 12 8 12 35 0 35 -6 0 -13 -4 -16 -10z"/>
<path d="M3561 2201 c-19 -35 -13 -60 15 -67 46 -12 60 45 17 73 -19 13 -23 12 -32 -6z"/>
<path d="M1880 2201 c0 -5 7 -15 17 -22 15 -13 15 -12 4 9 -12 23 -21 28 -21 13z"/>
<path d="M1830 2190 c-18 -11 -13 -16 22 -25 23 -6 26 -4 21 14 -6 23 -19 26 -43 11z"/>
<path d="M1737 2163 l-48 -14 22 -37 c35 -58 104 -163 134 -204 15 -20 24 -41 20 -47 -8 -14 -35 -14 -35 -1 0 6 -5 10 -12 10 -7 0 -5 -7 5 -18 16 -17 14 -21 -26 -60 -43 -42 -43 -43 -62 -22 -20 22 -35 26 -35 9 0 -16 94 -111 147 -149 26 -18 40 -25 31 -14 -25 28 -4 68 38 72 44 4 60 -18 40 -57 -9 -16 -23 -34 -32 -39 -12 -7 -13 -11 -5 -16 15 -10 35 7 62 51 l22 35 -29 23 c-24 19 -26 25 -15 38 11 14 20 11 77 -29 36 -24 69 -44 74 -44 4 0 17 16 29 35 11 19 24 35 28 35 22 -1 35 -20 31 -44 -4 -20 0 -30 14 -37 11 -6 21 -9 22 -7 1 2 7 15 14 31 17 39 44 36 40 -5 -3 -30 0 -33 42 -45 55 -16 70 -11 70 22 0 41 34 29 38 -13 4 -43 37 -45 46 -2 4 22 11 30 26 30 19 0 21 -5 18 -52 -3 -58 -2 -57 -88 -47 l-35 4 -16 -95 c-13 -80 -14 -97 -2 -110 12 -13 17 -13 44 3 40 22 56 22 36 -1 -10 -10 -17 -24 -17 -30 0 -12 78 -37 88 -28 3 3 4 36 3 72 -3 71 4 84 47 84 48 0 113 -76 98 -115 -10 -28 -33 -16 -39 20 -3 19 -14 46 -25 60 l-19 24 -7 -37 c-3 -20 -6 -54 -6 -76 l0 -38 78 7 c193 17 403 88 500 170 l31 26 -40 69 -41 70 -29 -15 -29 -15 29 -48 c31 -50 49 -98 34 -89 -5 3 -22 33 -38 66 -16 34 -33 61 -37 61 -5 0 -23 -7 -40 -16 -103 -53 -300 -103 -410 -104 l-58 0 0 99 0 99 -57 6 c-199 22 -342 87 -504 229 -100 87 -155 160 -170 225 -7 29 -15 52 -18 51 -3 -1 -28 -8 -54 -16z m344 -372 c21 -17 22 -21 10 -44 -17 -31 -36 -40 -61 -27 -25 13 -31 36 -18 65 13 30 37 32 69 6z m966 -366 c-5 -13 -175 -74 -211 -74 -31 -1 -31 1 -5 66 12 28 11 34 -6 54 l-20 22 23 -12 c31 -16 38 -38 24 -74 -6 -17 -9 -33 -7 -36 6 -6 110 26 148 46 l28 14 -24 32 c-48 64 -47 81 2 27 28 -30 49 -59 48 -65z m-539 95 c17 0 22 -6 22 -25 0 -23 -4 -25 -45 -25 -48 0 -63 14 -51 46 4 11 13 14 29 10 12 -3 32 -6 45 -6z"/>
<path d="M2041 1766 c-9 -10 -9 -16 -1 -21 17 -10 37 12 24 25 -8 8 -15 6 -23 -4z"/>
<path d="M1910 2156 c0 -2 8 -10 18 -17 15 -13 16 -12 3 4 -13 16 -21 21 -21 13z"/>
<path d="M1650 2130 c-8 -5 -10 -10 -5 -10 6 0 17 5 25 10 8 5 11 10 5 10 -5 0 -17 -5 -25 -10z"/>
<path d="M1573 2100 c-24 -10 -43 -21 -43 -24 0 -5 90 31 99 40 10 10 -17 2 -56 -16z"/>
<path d="M1940 2116 c0 -2 8 -10 18 -17 15 -13 16 -12 3 4 -13 16 -21 21 -21 13z"/>
<path d="M3370 2090 c0 -16 5 -21 23 -18 12 2 22 10 22 18 0 8 -10 16 -22 18 -18 3 -23 -2 -23 -18z"/>
<path d="M1867 2094 c-8 -8 1 -24 14 -24 5 0 9 7 9 15 0 15 -12 20 -23 9z"/>
<path d="M3460 2079 c-10 -17 -9 -23 1 -30 24 -15 44 -5 44 21 0 32 -30 38 -45 9z"/>
<path d="M1025 2059 c22 -76 90 -229 100 -229 7 0 18 7 25 15 11 13 10 14 -2 10 -17 -7 -26 11 -73 135 -18 46 -38 86 -45 88 -8 3 -10 -3 -5 -19z"/>
<path d="M1622 2068 c-43 -21 -43 -95 1 -116 70 -34 132 53 77 108 -22 22 -43 24 -78 8z"/>
<path d="M3520 2061 c-15 -29 -13 -39 15 -57 24 -16 27 -16 45 1 24 22 26 60 4 69 -29 11 -53 6 -64 -13z"/>
<path d="M2870 2035 c0 -10 55 -95 62 -95 15 0 8 17 -22 58 -27 38 -40 50 -40 37z"/>
<path d="M2224 1997 c-37 -55 -48 -80 -33 -75 15 5 75 108 62 108 -4 0 -18 -15 -29 -33z"/>
<path d="M3405 2004 c-9 -15 -12 -23 -6 -20 11 7 35 46 28 46 -3 0 -12 -12 -22 -26z"/>
<path d="M2820 2007 c0 -24 32 -85 37 -70 2 6 -5 29 -16 50 -12 23 -20 31 -21 20z"/>
<path d="M1956 2002 c-3 -6 -1 -14 5 -17 15 -10 25 3 12 16 -7 7 -13 7 -17 1z"/>
<path d="M3029 1973 c-13 -16 -12 -17 4 -4 9 7 17 15 17 17 0 8 -8 3 -21 -13z"/>
<path d="M3081 1966 c-14 -14 -48 -42 -77 -62 l-52 -36 24 -36 c52 -82 42 -79 109 -29 33 24 71 57 85 72 14 15 -4 5 -40 -24 -35 -28 -68 -50 -73 -48 -5 1 -20 23 -34 47 l-25 45 29 -32 c16 -18 34 -33 39 -33 5 0 32 19 59 43 l49 43 -35 38 -34 37 -24 -25z"/>
<path d="M2526 1944 c-19 -18 -21 -65 -4 -82 20 -20 65 -14 82 10 21 30 20 44 -4 68 -24 24 -53 26 -74 4z"/>
<path d="M3452 1938 c-35 -35 15 -99 53 -68 30 25 12 80 -25 80 -9 0 -21 -5 -28 -12z"/>
<path d="M3640 1930 c-9 -16 -8 -22 6 -27 16 -6 36 14 31 31 -6 19 -26 17 -37 -4z"/>
<path d="M2020 1920 c0 -13 7 -20 20 -20 13 0 20 7 20 20 0 13 -7 20 -20 20 -13 0 -20 -7 -20 -20z"/>
<path d="M3349 1923 c-13 -16 -12 -17 4 -4 16 13 21 21 13 21 -2 0 -10 -8 -17 -17z"/>
<path d="M2110 1875 c-11 -13 -11 -19 3 -32 21 -21 49 -9 45 19 -4 28 -30 35 -48 13z"/>
<path d="M1724 1855 c-9 -37 8 -52 41 -37 36 17 31 56 -7 60 -22 3 -29 -2 -34 -23z"/>
<path d="M2927 1853 c-5 -9 -88 -46 -160 -73 -26 -9 -27 -11 -14 -37 24 -47 31 -76 17 -71 -7 2 -20 24 -29 48 -16 42 -19 45 -51 42 -19 -1 -35 -4 -37 -6 -2 -2 4 -19 12 -39 17 -42 19 -57 6 -57 -6 0 -16 21 -23 47 -9 30 -20 49 -31 51 -15 3 -17 -9 -17 -127 0 -81 4 -131 10 -131 6 0 10 6 10 14 0 9 22 18 68 25 118 20 292 80 292 101 0 4 -21 -4 -47 -17 -59 -29 -169 -61 -246 -72 -56 -8 -59 -7 -68 16 -19 52 -13 60 49 68 73 9 201 49 275 86 l57 29 -19 38 c-28 53 -47 77 -54 65z"/>
<path d="M3259 1833 c-13 -16 -12 -17 4 -4 16 13 21 21 13 21 -2 0 -10 -8 -17 -17z"/>
<path d="M2214 1816 c-7 -19 3 -36 22 -36 10 0 14 8 12 22 -4 26 -26 36 -34 14z"/>
<path d="M3507 1754 c-32 -41 -70 -82 -84 -91 l-26 -17 -53 59 c-49 54 -54 58 -71 44 -10 -9 -44 -37 -75 -63 l-57 -48 31 -63 c27 -55 34 -62 50 -54 10 5 18 20 19 32 0 16 17 33 57 59 58 37 89 42 39 6 -15 -11 -27 -26 -27 -34 0 -21 13 -17 44 15 16 16 35 27 44 24 11 -2 34 16 67 54 81 93 116 141 107 147 -4 2 -34 -29 -65 -70z"/>
<path d="M1543 1808 c-28 -13 -36 -34 -23 -59 21 -38 78 -12 67 32 -5 17 -3 18 10 7 13 -10 15 -9 12 7 -5 23 -34 29 -66 13z"/>
<path d="M3648 1758 c-46 -70 -144 -178 -232 -256 l-71 -63 -39 43 c-47 53 -37 30 16 -33 21 -26 38 -50 38 -55 0 -4 -10 -18 -22 -31 l-21 -23 24 -44 24 -45 -34 -35 c-81 -84 -481 -239 -481 -186 0 6 17 10 38 10 60 0 67 9 52 69 -13 56 -11 55 -100 27 -31 -10 -35 -15 -38 -51 -2 -21 -1 -55 3 -73 l6 -35 52 7 c29 3 96 19 149 36 108 34 113 35 113 19 0 -24 -235 -92 -363 -104 -76 -8 -110 -29 -98 -61 6 -15 17 -16 92 -10 242 18 518 119 750 272 92 61 112 80 97 95 -7 7 -37 -9 -94 -50 -81 -58 -265 -161 -288 -161 -29 0 -3 23 77 66 173 94 263 161 282 209 8 20 21 35 30 35 34 0 263 258 310 349 18 35 19 45 8 52 -28 18 -58 1 -58 -33 0 -10 -7 -18 -15 -18 -8 0 -15 -7 -15 -16 0 -8 -4 -12 -10 -9 -14 9 -13 -8 2 -23 16 -16 -23 -71 -131 -184 l-89 -93 -30 28 c-34 33 -49 31 -101 -12 -35 -29 -35 -51 0 -51 21 0 26 -15 8 -26 -7 -4 -24 7 -40 26 l-29 32 71 50 71 50 -36 37 c-20 20 -36 40 -36 44 0 17 23 4 51 -28 17 -19 35 -35 39 -35 5 0 34 29 65 65 l57 65 -43 40 c-24 21 -39 39 -32 40 7 0 29 -14 49 -32 l37 -32 30 34 30 35 -19 -34 c-24 -42 -130 -168 -173 -204 -25 -21 -28 -27 -14 -27 33 0 244 239 270 306 6 17 -96 84 -128 84 -20 0 -34 -11 -61 -52z m128 -65 c-7 -7 -96 56 -96 67 0 6 23 -6 50 -26 28 -20 49 -39 46 -41z m-372 -268 c11 -9 16 -20 12 -31 -5 -14 -9 -13 -26 9 -30 38 -23 50 14 22z m-514 -299 c0 -2 -14 -9 -31 -15 -27 -9 -30 -9 -19 4 11 13 50 22 50 11z m1 -50 c21 5 22 4 6 -6 -22 -14 -59 -9 -65 8 -3 11 0 12 15 3 11 -5 31 -8 44 -5z"/>
<path d="M3190 1775 c-13 -14 -19 -25 -13 -25 12 0 48 38 41 45 -2 3 -15 -6 -28 -20z"/>
<path d="M3996 1778 c-9 -12 -16 -28 -16 -34 0 -10 62 -54 75 -54 3 0 11 13 20 30 15 29 15 30 -15 45 -16 9 -30 20 -30 25 0 17 -18 11 -34 -12z"/>
<path d="M2302 1768 c4 -30 43 -33 43 -3 0 13 -8 21 -23 23 -20 3 -23 0 -20 -20z"/>
<path d="M2444 1745 c-8 -20 3 -48 18 -43 6 2 16 12 22 21 8 13 7 20 -4 27 -21 14 -30 12 -36 -5z"/>
<path d="M1660 1744 c0 -11 109 -118 154 -152 41 -32 54 -27 14 5 -18 14 -63 56 -100 92 -38 36 -68 61 -68 55z"/>
<path d="M2540 1730 c0 -5 5 -10 10 -10 6 0 10 5 10 10 0 6 -4 10 -10 10 -5 0 -10 -4 -10 -10z"/>
<path d="M3090 1700 c0 -5 4 -10 9 -10 6 0 13 5 16 10 3 6 -1 10 -9 10 -9 0 -16 -4 -16 -10z"/>
<path d="M760 1681 c0 -6 4 -13 10 -16 6 -3 7 1 4 9 -7 18 -14 21 -14 7z"/>
<path d="M3885 1577 c-44 -56 -122 -144 -173 -196 l-93 -94 20 -21 21 -20 56 54 c75 74 170 189 232 282 56 83 61 98 35 98 -11 0 -52 -43 -98 -103z"/>
<path d="M1894 1645 c-3 -8 -3 -19 1 -25 9 -14 35 6 35 26 0 19 -29 18 -36 -1z"/>
<path d="M2012 1625 c-7 -14 -12 -28 -12 -30 0 -6 61 -37 65 -33 7 9 25 48 25 56 0 9 -43 32 -59 32 -4 0 -13 -11 -19 -25z"/>
<path d="M1105 1619 c-16 -11 -29 -24 -27 -30 5 -22 81 -125 146 -201 80 -93 257 -251 269 -239 8 8 -62 81 -97 103 -8 5 -8 10 0 18 8 8 23 1 55 -26 63 -52 86 -61 106 -41 15 14 13 18 -18 43 -19 15 -69 63 -112 107 -58 58 -82 76 -90 68 -6 -6 -14 -11 -19 -11 -8 0 -100 121 -142 188 -14 23 -30 42 -34 41 -4 0 -20 -9 -37 -20z"/>
<path d="M2124 1576 c-7 -30 -1 -42 26 -49 30 -8 49 42 24 60 -27 20 -43 16 -50 -11z"/>
<path d="M2197 1546 c-13 -28 -13 -35 -2 -40 9 -3 17 7 24 26 16 45 -2 55 -22 14z"/>
<path d="M2240 1529 c-12 -22 -6 -39 15 -39 12 0 25 21 25 40 0 18 -30 18 -40 -1z"/>
<path d="M1833 1518 c-26 -12 -29 -35 -10 -62 17 -24 68 -18 82 10 l10 20 24 -22 c62 -58 269 -153 401 -184 30 -7 58 -18 62 -24 4 -6 11 -1 16 14 11 29 7 39 -9 23 -16 -16 -175 29 -288 82 -52 25 -131 70 -176 100 -45 30 -83 55 -86 54 -2 0 -14 -5 -26 -11z"/>
<path d="M3183 1426 c-79 -66 -269 -135 -437 -160 -44 -7 -81 -17 -83 -23 -5 -14 189 20 277 49 36 11 101 36 145 55 90 37 101 39 109 18 3 -8 17 -15 31 -15 31 0 45 28 22 42 -10 5 -17 18 -17 28 0 30 -16 32 -47 6z"/>
<path d="M1754 1376 c-40 -59 -42 -76 -11 -76 16 0 29 13 50 50 16 28 35 50 43 50 24 0 16 -24 -30 -90 l-45 -64 29 -18 c26 -16 29 -20 20 -44 -8 -19 -7 -31 2 -41 15 -18 106 -65 221 -113 49 -21 82 -40 75 -42 -18 -7 -187 59 -283 111 l-78 42 -21 -21 c-21 -21 -21 -21 -1 -37 38 -29 240 -122 342 -156 l102 -35 10 29 c13 37 29 37 23 0 -5 -33 -3 -34 127 -51 99 -13 113 -10 109 27 -3 25 -8 28 -53 36 -27 4 -74 12 -102 18 -52 10 -53 11 -53 46 0 28 3 33 13 25 19 -16 97 -27 97 -14 0 12 -61 32 -96 32 -17 0 -20 6 -19 43 1 23 4 41 8 39 31 -12 40 -14 57 -9 11 3 18 2 15 -3 -3 -4 11 -11 30 -14 19 -4 37 -12 41 -18 5 -8 -2 -9 -22 -4 -70 18 -104 19 -104 3 0 -10 17 -21 48 -29 39 -11 48 -18 50 -40 3 -22 9 -28 43 -33 22 -4 42 -5 44 -3 3 2 8 36 11 76 8 83 6 85 -83 86 -29 1 -53 4 -53 7 0 3 -26 12 -57 19 -31 7 -85 23 -120 36 -35 13 -70 24 -78 24 -8 0 -24 -18 -35 -40 l-20 -40 35 -14 c19 -8 35 -20 35 -26 0 -14 -199 87 -206 104 -6 16 34 116 47 116 12 0 12 2 -16 -54 -23 -46 -24 -51 -8 -68 22 -25 35 -23 28 5 -3 12 0 30 8 41 11 16 17 17 36 7 27 -15 24 -45 -4 -48 -11 -2 -14 0 -7 3 6 3 12 12 12 21 0 19 -35 13 -36 -7 -1 -24 17 -41 37 -35 21 7 25 -5 7 -23 -9 -9 -8 -12 4 -12 9 0 26 19 38 45 12 25 25 45 30 45 4 0 61 -18 126 -40 66 -21 157 -45 204 -52 l85 -13 6 -85 5 -85 2 97 2 97 -57 11 c-251 50 -427 123 -516 212 -21 21 -41 38 -45 39 -60 7 -64 5 -98 -45z m231 -106 c-3 -5 -12 -7 -20 -3 -21 7 -19 13 6 13 11 0 18 -4 14 -10z m131 -115 c16 -12 17 -14 2 -15 -23 0 -48 11 -48 21 0 14 24 11 46 -6z"/>
<path d="M2560 1394 c0 -21 4 -33 10 -29 6 3 10 19 10 36 0 16 -4 29 -10 29 -5 0 -10 -16 -10 -36z"/>
<path d="M3257 1313 c-26 -13 -27 -16 -14 -36 7 -11 20 -23 28 -25 9 -3 8 2 -5 17 -24 27 -3 28 26 1 l21 -19 -21 -8 c-15 -6 -19 -12 -12 -22 7 -12 12 -12 34 3 l26 17 -20 39 c-25 49 -29 51 -63 33z"/>
<path d="M1527 1313 c-13 -12 -7 -21 24 -44 24 -17 33 -19 42 -9 9 9 5 17 -18 36 -32 26 -38 28 -48 17z"/>
<path d="M3187 1267 l-28 -22 21 -48 21 -48 37 22 c20 13 39 24 41 25 1 2 -9 18 -23 37 -14 19 -26 39 -26 45 0 18 -12 15 -43 -11z m48 -56 c-8 -8 -35 22 -35 38 0 12 5 10 20 -9 10 -14 17 -27 15 -29z"/>
<path d="M2540 1243 c-8 -3 -21 -12 -27 -21 -43 -54 34 -125 80 -74 23 25 21 58 -3 82 -21 21 -25 22 -50 13z m13 -73 c3 0 13 7 21 16 13 12 16 12 16 2 0 -37 -52 -51 -70 -19 -15 29 -12 36 8 18 10 -10 21 -17 25 -17z"/>
<path d="M3081 1219 c-35 -16 -81 -34 -103 -41 -24 -7 -37 -16 -34 -24 3 -7 8 -29 12 -48 3 -20 10 -39 15 -42 12 -7 100 22 162 53 53 26 54 33 24 104 l-12 27 -64 -29z m19 -40 c9 -16 8 -25 -6 -40 -9 -10 -23 -19 -30 -19 -18 0 -44 39 -37 56 8 22 20 16 19 -8 -1 -28 37 -33 42 -5 2 10 -3 17 -13 17 -9 0 -13 5 -10 10 10 16 23 12 35 -11z"/>
<path d="M2411 1224 c0 -11 3 -14 6 -6 3 7 2 16 -1 19 -3 4 -6 -2 -5 -13z"/>
<path d="M3677 1204 c-8 -8 1 -24 14 -24 5 0 9 7 9 15 0 15 -12 20 -23 9z"/>
<path d="M4213 1194 c-3 -8 -1 -20 5 -26 16 -16 42 -2 42 22 0 24 -38 28 -47 4z"/>
<path d="M870 1181 c0 -26 17 -36 35 -21 18 15 8 40 -16 40 -12 0 -19 -7 -19 -19z"/>
<path d="M1625 1183 c-4 -12 1 -24 15 -35 27 -22 34 -22 51 -2 11 14 10 19 -10 35 -29 24 -47 24 -56 2z"/>
<path d="M2512 1048 l-2 -88 83 0 c45 0 106 3 135 7 l53 6 -3 70 -3 71 -65 -3 c-35 -1 -68 -5 -72 -7 -5 -3 -8 -27 -8 -55 0 -54 6 -57 80 -43 31 7 32 8 26 48 -5 27 -4 37 3 31 5 -5 11 -28 13 -50 l3 -40 -108 -9 c-59 -5 -111 -5 -115 -1 -4 3 -10 39 -13 78 l-6 72 -1 -87z"/>
<path d="M2562 1058 c2 -30 8 -43 18 -43 10 0 16 13 18 43 3 37 1 42 -18 42 -19 0 -21 -5 -18 -42z"/>
<path d="M2502 883 c4 -39 28 -42 28 -4 0 21 -5 31 -16 31 -11 0 -14 -8 -12 -27z"/>
<path d="M2978 873 c-31 -5 -35 -15 -14 -32 12 -10 20 -9 40 4 22 15 28 38 8 34 -4 -1 -19 -4 -34 -6z"/>
<path d="M2100 856 c0 -21 21 -31 30 -15 5 7 6 17 4 21 -9 14 -34 9 -34 -6z"/>
<path d="M2262 828 c5 -15 28 -18 29 -3 0 6 -7 12 -17 13 -10 3 -15 -1 -12 -10z"/>
<path d="M2837 834 c-9 -10 2 -24 18 -24 9 0 12 6 9 15 -6 16 -17 19 -27 9z"/>
<path d="M2721 821 c-77 -8 -81 -31 -4 -25 72 7 86 11 78 24 -3 5 -9 9 -13 8 -4 -1 -31 -4 -61 -7z"/>
<path d="M2340 810 c0 -5 1 -10 3 -11 1 0 21 -2 45 -5 33 -4 42 -2 42 11 0 11 -11 15 -45 15 -25 0 -45 -4 -45 -10z"/>
</g>
</svg>